# xmcd
# 
# Track frame offsets:
#     182
#     24295
#     46090
#     68637
#     89017
#     117435
#     141540
#     160507
#     185447
#     208680
#     232357
#     261840
# 
# Disc length: 3679
# 
# Revision: 39
# Processed by: cddbd v1.5.2PL0 Copyright (c) Steve Scherf et al.
# Submitted via: fre:ac v1.0.31
# 
DISCID=ab0e5d0c
DTITLE=Joan Osborne - Relish
DYEAR=1995
DGENRE=Rock/Pop
TTITLE0=St. Teresa
TTITLE1=Man In The Long Black Coat
TTITLE2=Right Hand Man
TTITLE3=Pensacola
TTITLE4=Dracula Moon
TTITLE5=One Of Us
TTITLE6=Ladder
TTITLE7=Spider Web
TTITLE8=Let's Just Get Naked
TTITLE9=Help Me
TTITLE10=Crazy Baby
TTITLE11=Lumina
EXTD=Thanks to: Paul Rosselli, Tom Fritze, Sue Bodine, Rebecca Meek, Amy Seigel, Michele Galman, Doug Schoemer, Dr. Marion Cousins, Lori, Daniel and Joshua Chertoff and Everyone at Mercury Records.\n\nSpecial thanks to: the musicians (past, present and fu
EXTD=ture), the audiences, and friends way too numerous to name.\n\nLeo Osborne appears courtesy of the Home Grown Lopes\n\nManagement: David Sonenberg for DAS Communications, Ltd\nBooking: Barry Weisblatt, Alex Kochan for Artists and Audience Entertainment
EXTD=\nAttorney: Suan Bodine at Bodine Herzog, New York, NY\nHypnotist: Steve Srebeneck\nPackage Design: Chris Thompson\nPhotography: Terry Richardson\nCollage Art: Joan Osborne and Chris Thompson\nA&R Coordination: Michele Galman\n\nWrite to us at:\nPO Box
EXTD=2596\nNew York, NY 10009\nPlease consider donating time or money to these organizations:\nRock for Choice, 8105 West 3rd Street, #1, Los Angeles, CA 90048\nPlanned Parenthood Federation of America, 810 7th Ave, New York, NY 10019\nWomen's Health Act
EXTD=ion Mobilization (WHAM) Po Box 733, New York, NY 10009\nThe Park Slope Safe Homes Project, PO Box 429, Van Brunt Station, Brooklyn, NY 11215 YEAR: 1995 ID3G: 80
EXTT0=
EXTT1=
EXTT2=
EXTT3=
EXTT4=
EXTT5=
EXTT6=
EXTT7=
EXTT8=
EXTT9=
EXTT10=
EXTT11=
PLAYORDER=
